<svg width="600" height="562" viewBox="0 0 600 562" fill="none" xmlns="http://www.w3.org/2000/svg">
<path d="M499.991 562H99.9912C44.6579 562 -0.00878906 517.667 -0.00878906 463V99.3337C-0.00878906 44.6671 44.6579 0.33374 99.9912 0.33374H499.991C555.325 0.33374 599.991 44.6671 599.991 99.3337V463C599.991 517.333 555.325 562 499.991 562Z" fill="white"/>
<path d="M309.333 430.666C304.333 432.333 296 432.333 290.667 430.666C247.333 415.666 150 354 150 249C150 202.667 187.333 165.333 233.333 165.333C260.667 165.333 284.667 178.333 300 198.666C315.333 178.333 339.333 165.333 366.667 165.333C412.667 165.333 450 202.667 450 249C449.667 354 352.667 415.666 309.333 430.666Z" fill="#7101FF"/>
</svg>
