<svg width="600" height="562" viewBox="0 0 600 562" fill="none" xmlns="http://www.w3.org/2000/svg">
<path fill-rule="evenodd" clip-rule="evenodd" d="M100 562H500C555.333 562 600 517.333 600 463V99.3337C600 44.6671 555.333 0.33374 500 0.33374H100C44.6667 0.33374 0 44.6671 0 99.3337V463C0 517.667 44.6667 562 100 562ZM290.675 430.666C296.009 432.333 304.342 432.333 309.342 430.666C352.675 415.666 449.675 354 450.009 249C450.009 202.667 412.675 165.333 366.675 165.333C339.342 165.333 315.342 178.333 300.009 198.666C284.675 178.333 260.675 165.333 233.342 165.333C187.342 165.333 150.009 202.667 150.009 249C150.009 354 247.342 415.666 290.675 430.666Z" fill="white"/>
</svg>
